<mxfile host="app.diagrams.net" modified="2022-04-09T08:32:54.746Z" agent="5.0 (Windows NT 10.0; Win64; x64) AppleWebKit/537.36 (KHTML, like Gecko) Chrome/85.0.4183.83 Safari/537.36 Edg/85.0.564.44" etag="29VN_n6mhO4rUPCx6RsP" version="17.4.1" type="github">
  <diagram id="C4njx81NWTeYIaaPmCJN" name="Page-1">
    <mxGraphModel dx="803" dy="579" grid="1" gridSize="10" guides="1" tooltips="1" connect="1" arrows="1" fold="1" page="1" pageScale="1" pageWidth="827" pageHeight="1169" math="0" shadow="0">
      <root>
        <mxCell id="0" />
        <mxCell id="1" parent="0" />
        <mxCell id="lRvOVqoAhHcIxsnsqkBL-1" value="" style="shape=image;verticalLabelPosition=bottom;labelBackgroundColor=default;verticalAlign=top;aspect=fixed;imageAspect=0;image=data:image/png,iVBORw0KGgoAAAANSUhEUgAAAasAAAFACAYAAAACklMsAAAgAElEQVR4AeydCdxVU/fHeeM1/zNlVmaiyVDRIJokhSaleULm5glJoybRnEqGiqJEaJ40SdJAhISIhJDx9WL9P9/du67z3O783Hufc++z1udz7nDOPvvs89vn7N9ea6+99gFiYggYAoaAIWAI+ByBA3xePiueIWAIGAKGgCEgRlb2EBgChoAhYAj4HgEjK99XkRXQEDAEDAFDwMgqjc/Ar7/+Kj/88EPE7ccff5T//ve/aSyVXcoQMAQMAf8jYGSVpjp64403ZMaMGTJr1qyI28yZM126r7/+Ok0ls8sYAoaAIeB/BIys0lBH77//viOoJUuWyNKlS6Nu8+fPl+eff15+//33NJTOLmEIGAKGgP8RMLJKQx2tWrVKXnvttagk5SWyF198Ub755ps0lM4uYQgYAoaA/xEwskpDHa1YsSJuspo9e7bs3r07DaWzSxgChoAh4H8EjKzSUEdGVmkA2S5hCBgCWY2AkVUaqtfIKg0g2yUMAUMgqxEwskpD9RpZpQFku4QhYAhkNQJGVmmoXiOrNIBslzAEDIGsRsDIKg3Va2SVBpDtEoaAIZDVCBhZpaF6jawSA/nvv/+WP//8M7GT7SxDwBDIKgSMrNJQnUZWiYE8fvx4ad68eWInJ3gWBDlp0iSpVq2aVKpUSR599NEEc7LTDAFDIJkIGFklE80weWUDWRFNg7iF6ZS2bdvK8OHD03lJeemll+Tss8+WzZs3y4YNG+Rf//qXbN++PWwZ6tSpI1988UXY43bAEDAEkoOAkVUcOBJRol+/frJy5UqhBx6rZANZca/Dhg2T66+/XqZMmRITcX3++efy6aefyurVqx1m5IFZb/HixTJt2jThuMquXbvkueeek0WLFgVMfxdffLEQoorwU0QA+euvvzS57Nixw+Xx3nvvydatWwMTqInBCLEuWLBAXnnllUBenLh3714X9oroIL/88ksgL++Phx56SFq1auV2UZaTTjpJCEAcLH/88YfMmzdPChQo4O7nk08+kZ9//tkR3McffyzEeOQZYSMyyQsvvOCOE80EgfghRCZ+c9+E5FLhGOfPmTNHfvvtN7d748aNrvw8SxzT/RykfKQlH3BUoTzcKxPM+a3y0UcfydSpU4WyxPMc6/n2bQjkBQJGVnGiTgNTqFAhOfXUU+Wee+6JibiyhayAavDgwXLAAQfIIYccEpW47rrrLilfvrwzp0HykEXFihWlZcuWct9998lxxx0nO3fudGRz5plnSt++fZ3Zb9OmTY5wDjvsMKlataq0a9dOTjvtNHniiSdcbUEiin+JEiXcsTfffNMRE3led911cuutt8oFF1wgffr0cee8/fbbct5550mPHj2kcePGUqFChZA1v3z5cjnllFOkY8eOUrJkSUcooRJCwldddZVLC7lBXBASBMvWtGlTRwR8cy0tz2WXXeaye+aZZ6RcuXJuu+WWW+SII45wBEZUfsrZvXt3ufvuux3RcMKFF14otWvXlmbNmknZsmUDhLpt2zY599xzpU2bNu4axx57rCNyyJhzOnfu7O6FzgEydOhQufTSS6V///5SrFgxGT16tNtvH4aA3xHIerKiN05vOZlb/fr1XYNNo82mDWc4jSuZZKXX9NO3EhcNsFdjueKKK6Rhw4aB3nunTp2kffv27p1AS4X00SiGDBni0nlflnXr1smBBx7otBL233nnnY540MzOOOMMp4GxH7I76KCDnKaBlgUukBny5JNPOrLjGaDhRttC5s6dK2eddZb77f34z3/+I127dnX5Va9eXdCe0DxuvPFG2bNnjzep+z1w4ECBkFUgwnPOOcctAcM+NLuLLrrI5cN/CPq2225zye+9914pXrx4QOP5v//7P6eFcg4k6dUif/rpJ2eOZCwNgVAxVSKVK1eWUaNGud/6H1LXNF4HFcyaRYoUcdckf0i2Z8+egXPthyHgZwSynqxocNLVsNOTxykg2LSS7WSFVtStWzd56623AvfOmlyHH364YB5DwOT44493DfGVV17ptC3IDfnggw+kcOHCcs0117jf7Bs3bpzUqlXLHeeDY0Six3QF0SjGr7/+utNkSPP000+7dHoSWkO9evVk7dq1zlzHddFyMGWiaQVLo0aNXAO+ZcsWKViwoFBvaGznn39+4Hrec+i0QIgqENzkyZP1rzRp0sRpMrqD/B9//HH3l3KgiSEsB3PkkUc6zRBSvOSSS5z2Q+cHoRzeMmASJQ1jZYceemgOkyDaHloUZj80NwhRybtDhw7OrAkOHIMw0z0O6W7IPgyBBBDIN2R1ww03uJebFzy32+233x4gQAjqgQcekHfeeScs/Mkkq7AXScMBeuOYmyD/UATlLcK7777r0ui+b7/91mlKXo1Bj/HNOBONqZrnMI098sgjLokSHY4OaBc1a9YMnIoTBhtC4/vwww8HjlHnI0aMcCR27bXXBvaH+vHZZ585QlPNkPGfE0880ZHr9OnTQ53i7k/rXcuIeVAFkx+aEsL9H3XUUbJ+/XpHSpj92IdAPphHVcAIosWkieCRqBoZ/9FOwYrnCk1OBRMi12A8D6FMEDidBjoP4MZ/E0MgExHIN2R1xx13JKV+GHtRgmL8KhbJBrLCnIQpFTOZV4MKd/9PPfWUoHmo4BDAGBRY0BijvXz55Zfy4YcfCiY/9jGOUrduXXcKmgOmLAQiOeaYY1zjizbCmA6OCSNHjnSN89ixY106xscY11FnDcyzaA6Y/TAdYnqEFNHGgoWy4CxBWj0H5woaf8qhmpyeR3khbe6D61FGyMWbDhMdzwsEhpaIuRRTI+dQHhXG6iAftCrGvsgbJ4qiRYu6JIx7lSlTxl0DZw3Mp2iskDeaFYQJ8YE343toVS+//LLLB9Pn6aef7srVokULd5y6BAvMgiaGQKYgYGQVR03xgmtPOo7TXAMd73pWflsihJ65tyGOdv+Y8SAsr6ChlC5d2o3j0LBi/mKcCScKxnZwHqDh5zqY1HDIQDDj4cyCQHqY0zBvQW6YH9HiaIDRVhhH4liNGjXcfs7hGCTLNSBBfocSyod5jHQ4YaxZs8a5suPQoGXxnsd4FdfC3Z0yotl5BWLGmQHSQsNSL0MIh/EtFToBkBTPF+NjjK9hqgQbBNLq1auXKzsmPPJVGTNmjJQqVcptECP1BNk2aNDA3QfalJISpAmZ09kiHzwITQyBTEHAyCoNNZUNmlUaYMrVJSCsUE4TucrUBydDkmhPaGQmhkB+RsDIKg21b2SVepBx1rjppptSf6E0XwEnC7RRE0MgvyNgZJWGJ8DIKvUgYzpkrCfbJFvvK9vqye4n9QgYWaUe46wYs0oDTHYJQ8AQMATCImBkFRaa5B0wzSp5WEbLSefURUtnxw0BQyCzEDCySkN9GVmlAeT/XcLIKn1Y25UMgXQiYGSVBrSTTVbM6SFyAvOAmLh6wgknuMgJuC4ztwhX62C38TTcpi8uYWTli2qwQhgCSUfAyCrpkO6fYbLJiisw8M7yFdo4Ez4IBwOCsOo+rpvfRO89v9233a8hkO0IGFmloYZTQVYU++CDDw4Qk8a6u/zyywP7vAFO03CbvriEkZUvqsEKYQgkHQEjq6RDun+G6SIrNCtC69BgE8U71nBQ+5c4c/cYWWVu3VnJDYFICBhZRUInScfSQVaMYQ0YMMBFC0e7IsZdfhQjq/xY63bP+QGBfEFWBD5NViDbRB6KdJCVmgFZeFAbbGLO5TfRe89v9233awhkOwIZQVZEyqbhXbhwYUL1MWPGDOndu3dC5ybjpHSSFZHItcEmYnh+E733/Hbfdr+GQLYjkBFkxXIHNEKsoJqJwoKB8UZdf/HFF10U7kj3ywq52jirZsXaR7qPBf3ym+i957f7tvs1BLIdgYwgK5aO0EZo48aNGVcnLPUA+SxZssQt084SEZE21iBCG2Q5jHDCMcWEbyUrls/Q/X369Al3etbu13vP2hu0GzME8ikCvicrTIBFihQJNMAdO3bMuKpiThTaFcuyQ1rRNojqq6++Cnufn3/+uSOz+++/X9juu+8+tzYRCxOyavHgwYNFl0QPm0mWHshvZPXRzi2ycP2LEbfZq56WZ5eOjZhmwfpZ8uzSMRHT6HW+3LNvJeIsfYTstnyKgO/JCm1kwoQJAbIiYgMLzGWi/PTTT/Ldd99F3Fgt1tYuSrx28xtZPfDUbdJscCW59bHrwm7NBl8l9fuUlgZ9yobd6rtjpcPmofnfPKC8TJ43LPEKsjMNgQQR8D1ZsYIqy3SzCqw2RK+++mqCt2unZTsC+oxk+33q/UFWw17qLKs+fSXsNmhWB0dWEFakrdGAcmHz0Py7TGpqZKXg23daEfA1WWECHDRokCxatEjKly8fIKuGDRumFSS7WOYgYGS1P2kZWWXO82slDY+Ar8kKE6A6GTDJVRuiQw45RL7//vvwdyUiP/+2V7Z/tTXstuenbyKebwczEwF9RjKz9PGX2k+aFebrYcOGCZYPHIjw4v3oo4+cJ2z8d2ZnGAI5EfA1WT399NOB0v7xxx9y9NFHBwgrUty7H37+Tu4eXVfuGl1X7hlbL8d2y/BrnSlk6AvdAnmn68euXbvkww8/lA8++CDi9umnnwr3axI/Aukiq23btknfvn1l2rRp8RcyiWf4iayaN28utWvXznF3RFUhoopJ7AhgUVq+fLmLSMP8ULbx48e7eaaTJk1y/9n3xBNPxJ5phJR07N/fsTHMtkF27fkiwtnpO+RLsqI3Rviga665xlUalYcp8IILLpBjjz3WbSVKlHD7gqFSohr92oOy8csVObY3Pl0g94yp58hqyqJRwaem9P+7774reOvR24y24S3IvCwjrPirJB1ktXfvXrcUC1oEHp7ffPON0yDiL23uz/ALWeG9euCBB0qBAgVk6NChgjMRgifsLbfckvsbzYc5QP76PLdt2zaAJ96+7K9QoUKuUfnxlz1y16g60npoNWk7rEaOreWQKq6t7DaxRa6vk4wMfElWid7YPqKqJ5GIqsfENtJz4i2STrKicaNRW7x4ccT5Vd65V7Nnz5ZMnFOWaN3l5jzc9NVDVF9u/hM5JBVCp6Nq1aqBrJku0LVr18D/dP7wC1l9/PHHgYaVOmBCOiRFJ43Op0n8CNx1110BTJXwf/jhB5dRjx49ck1WSlS3PVpLuk5olmPr/HgTaTG4siOrkbP9EbYta8gqJqKa0FaeeOWxtJPV119/LZCPl4yi/cbuz9wsk+gIEIarWrVq8uOPPwZe7ho1agiepLEIJr369evLZZddJg8++KA7BY1g3LhxUrFiRSlXrpyMGTPG7WdRywsvvFDOOOMMufnmm10YsNNOO03Q9JmQjXTr1s1p/TfeeKNceeWVsmnTJrcYJvnQW1aNmXHXW2+91V23V69e0qFDB9m5c6dg6hk7dqzLa/fu3XLTTTeFjWbiF7ICr+LFiwfw104D2hZzAU3iR+Duu+8O4Hnbbbe5DKZPn+6+6Yy1bt06/kz/d0YsRFXv/rJyXaeSYmSVMMz7nxgPUWUKWWEGNLLav65D7fnzzz/l+OOPd4ShjeRxxx0X0LZCnePdd8UVVwjjozjzKOaQ1tVXX+20AqKDEGcRTRcygdRGjBjhjqFRsBwLxIgGQaONqbpy5couPT1iiI3J7JAiqzpzDdJVr17dERQrP9OLPvTQQ12ZuR7pmLJBGRivCCd+Ias33nhD3nrrLUfgEJTWg34nGtcz3H3nh/1esmrTpo1b8gevaJVIgQM0TahvJap2j9bOoU2hXalGBVFVvf0iI6tQACa67x+i6p1jfIrxKh2j6vE/jQqiMrJKFGl/nwcpaMPINy93rFKsWDHp3r27/PLLL+4UJmYzr++LL/4ZWIag0I4hmWOOOUYgGGTHjh3O8Yf9yPbt292imJ988on7T3QRTIZ6nPXG3nnnHVm7dq2gkan5EhNx2bJl3Tl8VKpUSUqVKiU0WJHEL2SFQ8Dw4cNdUSFltEsIV+sEHEziQ8BLVvXq1RO0KrRXFYYX9LnSfdG+4yEqI6toaMZxPBai6jlxn+lPicrIKg6AMygpPXdtGPmO1QTILeKdiRfbqaee6sgGrRaiUGFRy0KFCjlNCTLitzYSOMNUqVJFk7owWDgGqdSsWVOmTp3q/n777bdy2GGHOYIaOHCgtGzZUpMJZkBdxoa8MSFyH17CDCT2/PATWRFdBqJXQVPV+0ATNYkPAS9Z3X777e5kovmoEPtTOzu6L9J3vERlZBUJzTiOJUpURlZxgJxBSdUUSAMfjwnQe4uY7nAHxhnGq+XMnDnTjVNBIhxjPEwFkvHGq0SjwOECIT0NONMVEAIUY3JEOnfuLPfee6/7/eWXXzozJmNVCMvh0JMmgDP5R5KO45tI62HVpP34+mG3ZkOukgZRolfU71NGbupTRno+1SLi1mJIZRk7p99+RUKz6t+/v0DChBRTYRUANFdMmibxIRCKrFSjJz4oGn6sZLWPqOpKu8eim/4gKd1szCq+OtsvdW6IyshqPzizZgfOCpBVPCbAFi1aSL9+/dzclTPPPFMgDjYaAhweMA8SSHndunUOJ/57HQYwb2Ei7NmzpzuOyQ9zIYJWxHgWmhlCQ87YFIJJ56STTnJkxDgE12ZM7LnnnnONOyaeN99805HYr7/+6s4J9dFpfGPp8URzmTj/4bBb14nN5PbRNeXBGa3Dbj2nNnOeXw36XCGRNsI1jZy1P4Fu3rzZxbSEoPHCxIEIbZcpKGpeDVV+2xceAbQpnmc21axIzVQe3NbZHwtZJUpUplmFr5uYjuSWqIysYoI5IxOpKTAeEyBjTphW8PLDTKdCDzbUfrQvJSPSQiqTJ08OzPkj0gr7EExizA9UwXGC8RyERn3OnDnuXLwCOY+GZ/78+UKvWYVrqbuy7vN+YwacMH+g7Pjhg7Db2Nf6yv3PtZDpmx4Juz2xuq+gXUWKHbjv2OUWG9BbASn4jbfosmXLnIdr4cKFhQ2TMZo50ybwQtX90cgKorp7VPwalWlWuazYZBCVkVUuK8HHp2MKZOJ4tBc4kVuAZCA0zHpKRonkk+xzjKySjWj25JdbojLNKsFnIVlEZWSVYAVkyGlr1qxJSUlfeukl55nnt4naRlYpqe6MzzQaUbUcXFnUPV21qFDfNmYV56MQG1Hd4tzSIaNoW7ojWCQyKdjmWcX+kDA2hJPDeeed5+Yq4TKNd1885sDYr+avlEZW/qoPP5QmWURlmlWctQlR3TOaEErh51FBPtEIyns8UbJioJjxCQLNxiNGVjnRwqT27LPPuogTOY/E/++VV16RggULuph0ODfgwNCkSRPnXs4AdKtWrQTzYCYJY1ZMUvaOoYUrf7rJqkb7UnLCKcfLOeeck9B29tlnu/OYLmCSfASUqG5/7PqQE35j1ahUyzLNKsY6SgVRQVqJkhXF3rBhg/PQKl26tFtri3k30cTIan+ECOZLpIfrr79epkyZkhBx4S138MEHO487vNG8whwfQh1BWHfeeaf3UEb8xjEDF3zmbE2cODEscaWbrGp2vFiKljzHRdYguka8G/XBxsRok+QikGyiMs0qxvpJFVFFIyu8cGhIGaPAE4uNiZ+zZs0S5tuw4bqsLx3fl1xyiQvnHy5gZzLJynvdbPrNGmXxEhcu4zg8MPG2Tp06ORwrHnvsMdeDR8si/M/69esDT14m4nbQQQeFJK50k1X9PrnzBqRewN/IKvA4JuVHKojKyCqGqkklUUUjK4KUJtqY/fvf/3ZExiJ0XjGy2tebjhVX5hxFiyWHowP5PfLII25+T61atYQVpDH5EQSWPHA/x5QGEXq1q1jL4dd0J598sus08YwZWXnftPz5O1VEZWQV5Xnas3e3MEt+0MxOsurj13Jsyz54ya1H1XNSfGNU3vGqaGTFZEbmvzAWwkb0c5wdmAfDxqA9YU60IcMMde2117rJj+HmwySTrKLAl1GHwZWlJMCSBpgZ+6+//npgEm2km8E0xnksQYEwURKTGREimIPiNc8S7bxMmTKRsvPlMUyBTCrmPjEJEv8QEve65htZ+bLq0laoVBKVkVWUauzzzJ1uYmLzIVdJ8MakxFsfuS4uZ4pgoopGVlGK5wKQ6lgC4XG8sdDCnWtktT8yaD8EdY2HoLy5EMaHRtwbO4/6QIsiVBGTblUwE6IxZ5I888wzcsopp4QkKO99GFl50chfv7FANR5QUdoMu0Y6jmuUY+swtqHE60wBOQVv5mAR4ZkaMftBmbB4gKz69JX9tr4z7pRek+/IM7Ji0H7GjBlhB7vD3ZaRVU5k8AaMVYPKeeY//xhLhKyY1Y8QpojGHQcYHCt0/R+OsUTHdddd98/JPv+FNyBalVeDClfkLhOaS4shV8ttI2uH3RoPrCD1e5eWhn2vCLvd1PdyualfWbl5YIWIW6MB5eTRmYlHULcxq3A1Gf/+0S/32Rciq28ZaRC00bGv17vMfuQTTEbR/htZRagXP5NVhGJHPGRkFRGehA4Soujwww+XBg0auPEb4uypSZAl1TH9obVpCKaRI0cmdB2/n9Rn6l3SaNAVcsvEq8JuzR4tLzU7lpCKLc8Pu13dtqg07He5jFvwUMSt3YhaMjoXK8caWSXviZo0d0jE8Fi1upQyskoe3PvnZGS11AUBtUnB+z8bwXu6dOnitCvGdYIjS7BqcMmSJV1AWtaNgsCyUYbN7ClNHqkk7WdeE3ZrM76SXHNPcbm84dlhtwrNzpdG/cvtZ80ItnB0mdQ0V7EBjayS9xQaWSUPy4RyMrLKTLJijMg7TpRQ5cd5EmZZjT7N5F8io7MUBWa0UaNGuflwaF8rV66MM+fMSW5klTl1leySGlklG9E48zOySoysWIYi3WThrVo81SCIdAtRRYhawTwkxrC828UXXyxEOs9mMbLK5tqNfG9GVpHxSflRI6vYyQoNolOnTs6xgDGa8ePHu8nMO3fuDKxOm/IK+98FMLnlpQbDPRMKi4ULmXu1evXqdN16nl7HyCpP4c/TixtZ5Sn8IkZWsZHV+++/76I3oEng7aYTkdGuWGGW5cTjEWK14bSAF9rWrVvdqeTJ+kpE82AMSIXJtqyYq1EhMMcxIfqbb75xc9N0v6anrKzDg6MJY0ukp5yES2J+FHPZ3njjDU3uvsmLqCFLlizJuNh+OW4kxX+MrFIMsI+zN7LK48oxsoqNrCpVqhQweeky6lp1EE+8ZMVqtcR5Y2Itq7tCSMWLF5c77rhD2rZtK+eee65zpYbMiG6OBoM7OCS2du1ap90xfsRqvYcddphorD6NJsFKp6w1xRw1xpVY6p2gpupmTpxASBFhUvb555/vVt/lPr3RJ/Qe7XsfAkZW+fdJMLLK47o3sopOVmg+3rEZ5hwFy5AhQ4J3hf1PiCIcEYjMoQJpsVIuAvlBQGhEODL07dtXk7nvMWPGOK87jUZftmxZpy2xPPzRRx/tiI+ERATRyblEXSd6BaSFsIR8+/bt5bvvvhOW+Pj444/dfib/ZtIcKVfoNH4YWaURbJ9dysgqjyvEyCo6WemEWCUstJ1ggVhilffee895zqkpkfEf8r788sulYsWKTuPStaEwCx5zzDFO24JYkDZt2siDDz7ofmPeO/744124o9GjR7sAs1oOHDCaN2/u/jLWxqaC5tWrVy8XYfyII45wGhfaXv369XOETtL09r0PASOr/PskGFnlcd0bWUUnK2IUKlHxTZT43AihfYharrJ48WIpUaKE/t3vm/EktB1MfkipUqVcRAp+Yz6EzCAtzHf33bcv2gH/idvHPBvkqquuctoXv/FkxLQI6UJg3bp1c2nsIzoCRlbRMcrWFEZWeVyzRlbRyWrv3r2BALCQlRKAt+oIyBurYH7r169fIDkhiyCcr776ypEO40+//vqrvPXWW4LWhdkQV/Xu3bs70yDx+HTSLU4RVapUcXlBOmhGuJczgRdTIh6DkNNRRx3liAwHi4cfflhY7oP9AwYMcONmhBpC06MsJuERMLIKj022HzGyyuMaNrKKTlZUkUZvgKwuvfTSHHOsaOhXrFgRc03iROF1O0cLwiSHtnPRRRfJzTffLH/88YeLPs/cJcadICtIkzW86tatG7gW0dAZZ0I++eQTZ0okPeNfOH3gXMEY2Kmnnuo0ryJFirh1rDQgLYGBIThWokVjGzp0aCBv+7E/ApBV/b6l5ab+l4ff+pWVer0vk7oPlg67EUeO+HJdJzeJuDUbfLVFsNi/GvJkj5FVnsD+z0WNrGIjKwgJZwc1B/bv399pJnjnEdQ1njGrf9BPz6+pU6fG7a2YnpJl3lU++/ojWbLh5YjbvHUvyMurp8jit2eHTbfo7dkyed5QeXbpmKjbJ1++nzBQ6Qq3RIcIL9VsFiOrPK7dbCQrFgDEPIZpLtaNuUexvGw4RzAu1LRpU6dt4XGHac3PwriU1/PQz2W1siUXgXSRFeOlmJezWYys8rh2s5GsMKFBVhAJk1yjbUQKZ9ItESqyUdD6Yln+IhvvPb/dE6ZizMoqociK54F3JJmCJ6suH5PMfP2Ul5FVHtdGNpIVkDJWg7Y0ffr0qNvMmTOFNZ9MDIFMRwDP0caNGzvHHO4lmKzWrFnjxj+9hEY63hNWHmBdshEjRjgYiIyC6Zuxz6efftrt47xx48bJDTfc4NJyPTpCzBtkukWTJk0C46ucwDE0ruuvv16GDRvm8mZOH/mg8ePQQwQYrrNr167ANZgXyKKe3AuORn4QI6s8roVsJas8htUubwjkGQI9evRwk8MhGF3hmQj5OAn961//clMWggtXrVo1F+GE1Z8xh69atcpFUcEqQXBi5uLhwDNlyhQXeZ/OHRFQMLnjvQpZQUg4GuGoQz4IzkQQGyTJ/ECuz3xBHHzwUL322mtl+fLlUrt2bbnnnnvcOUyCr1Gjhrzzzjsu/qZObA8uc7r/G1mlG/Gg6xlZBQFif32FAJoBjVa6BP3Fc+gAACAASURBVC1Ao3lEuubjjz/uYi1GSpPMY0RI0egj0fJF2yFaiToD8X3ggQe6/4ToCtaq+E/4LYhIBbOeYs/k8tNPP91Nl8CxiJBdXEOFgMZ4mTJlAqlVq5Ywl5AIK6x99sMPP7j9LNZ55plnut8QHQt4agxMFutEk0K7gviIY8nWunVradiwoTsnrz+MrPK4BrKVrOj5Ef0BU2CkjQm/9ByDX+A8rha7vIjrgRcuXDjgwEKke++ijwQCphGNVHe4/BPZQ4VePYtD0tNX2bJli1xyySXuLyTUrl07PRTyGxMz12V8CKlevXqOqQiYvrRxD5mB7At3NWjQoMBhGnoafMZPVWjsidnI/T3xxBNOM9Fj0b7Rrrxkpb9DRV9BY4KsmM+HoC2xBEzLli2FSCeYBZWcuGcmpxPWa8aMGS49S8YQu1KFOoOYmFZRs2ZN3e3Mh0yTQIiviaangkmQDcIEB8yCzEfE0zbZ42t6zXi/jaziRSzJ6bORrJiLhMMENnQGfSNtENqLL76Yo/FKMsSWXYIIsAQLPWsVot17o8XTqNII05gz7uiNxIGGRENHj524iyo43nDO/fffr7vcEieMjSA0ygT/jeSQMm3aNDc3TTMg+ojXuYDGlWugNfAMegMDUx5MZE899ZSLMKJ5QFKco6Yw9tPYYx5DmA8HoWiILj0v3Hco7SqUVsX5ROj3YkTUfq4VSSgbocEQIqXo/e/evdtpRhAfWhiEh0DGEO/AgQPdf0iMKRUI3rQQHCZElpth3MuPYmSVx7WSjWTFQDGNRKxu69jlGdCN1EPP42rKl5fHLKRjHwAQiazwcGNiM04B27dvd+MtNJCY9DQoMHmgBTRo0EDKlCkTwJRQVl4TWNGiRV3nhXGbrl27unQ0/tqI0usfPnx44PxIZAXpFStWTJYtWyYEGj7rrLPc0jAs33LwwQcHTGQ9e/aUm266yUXK14yZHE4UfRWuE8/k82DtKpRWRd6k4/oqYElwYwgdxwu+wZQYmUxepyNI+C5Mk9wfZjs6DgiWCjRghE7gySef7DQqoqxw75Aa7xn5MwGe+8Ns2KhRI7efyfJEc4EMMSVq+DCXYR5/GFnlcQVkI1lhD+eliJWsSEcvPFJvOo+rKV9eniVNvHPfIKt7773X9b7pgTMQr5oVANGYoj1AcmqiYj+RQYi/iNBAYvajgcUkiBZUsGDBgJmLNJAZGhCNKsu44LGGowBTIRCiinjNdZAIXnSUiY1GXDUr0tMZ4pwWLVrkIF9CXtGgI4wRYY6mLMR71AZdI+uTBvLykqQ7McKHV7sKp1VxOgSDNuUVzOiE4iJgMpoXobkYewIXyIsOIWWkQ4DpVIXxRSVFjqNBUk9YO3jHMCPu2LHDaa+bNm1y+ZPG++7xPmIm5Pre+tdr5NW3kVVeIf+/6xpZ7Zs4bGSVxw9iiMvjJOBtRCErzIL07tk6d+6cg6xoHDFJMf7EbxUIDu2BwXt690jVqlUdoaE9scSKV1hPTJdlYYwMosGjTeWUU07J0YhCVmhdWi60AS9ZcR5mNtYoo9FXoUHGREgDjgbCMUJpoVXgYRfsBcdYmkbb1zyifat2pQQSLX06jkPQeB9mmhhZ5XGNGVkZWeXxIxj28niSoQWpRDIDkgYthAUnIQWv5xwmYbQYOiQ6Bob2gys1jgFe5wDyIY2SFUSCs4TXTIaDhnfsLJIZkPwgSbQ7zIteB5HVq1e7/WgpaHMI43T8RoPC4cArODbEQ1YEQyZv7h3y8xK4N990/0ZTw2Ek08TIKo9rzMjKyCqPH8Gwl4d4GOtRiUZWmP8Ye2T8iXEQFcZg0NLwRNOxKRpvSAg3bFykvcJ8IR0rw2MNksNMpyY5xrtYXVklGlkxxgUJsbQM11PSwAkBRwZcs1lQE+EajNkwz0hNl3odtC4m5EYTCBZHDeZGoeHphhOD12QXLR+/Hse8CZmDG+ONaKeYMhXXVJXbyCpVyMaYr5GVkVWMj0rakwWP0UQiK8aQMAHSYGFOQ5tgyoIKjRpzjVhyBSEd5rwTTzwxh2mOY5AY40eYIBmzIi35Q4YI41PeWIuRyAoX+ZIlSzq3cPIhPwhVhXuETLzmTrzm0CqDPf8wYQYTq+aj32hxkDz3SmOOgwSkB8mBCdfCZOk1R+q5mfCNRqZzyFh0FEI+9NBD3X2xeCjjYakSI6tUIRtjvkZWRlYxPippT4Y3mHesCMLQCaYUBucItBVIAPOaaj4cw3sNwlHBLEjv2ysM3nvNeRzjPB0/IpI4zg4q6smGAw+ko4L2p95w7KM8lAvNiflGOBeo0Jh6CYfroaVxjgrl9i4hw37Ow4NO50JpWu+3kiFehhAb7u5egcho4CGswYMHew9lxG+0U8qOtyFen5hR0Xgxd+L4AXFx32heqRAjq1SgGkeefiUrb8MTx+24pOYNGC9i/kyPpxnaD1576RLGqrzjU6GuC0liUtM1wUKlSfY+5iepG324vCFjGnM8EjFfokkpuYMhGiBOHTiXoLnpAp7h8kvXfg3jxCTvcEKngSkIuMyrxqlkpecQtonJzM2bN9ddOb6JMQipMW0gETGySgS1JJ6TarKaOGe43Dmirsxa+WRcpcZ0wcuGhxXjC/GIkVU8aPk7Lc4R6QwyzPiUV0sKhw7u6F7nj3DpcrMfDUyDuOKKz4TbSIIXIyYyNA0EL0hMo6wmgIekTpoGU0iNCdJ+ESbnMxmbycKEbwomLjoQxBX0aqnBZMW9MMUAwkKLDCUE0y1QoIAbE0Rzj4ewjaxCIZrGfakkK4jq3tE3ycPPdZI//9oXyiWeW6NBYD4MLxZ2fB7YWJZdN7KKB2VL61cEiOzAOAzzzSAaTF+RhLSYxbyCxyMBY5kMrYJ5kHeKCBN8+3H797//nYO4MP0RIBcNUTf18tT/fGN+5X7QQvGm7N69u5sXhscn87YwfxYqVChwz2hrTEjGFKsam+IU/J1qsqp2ZzFp3K+CvPLGtOBL58n/A/LkqhEumiqygqjaj75JBk0PTVTMRcETCs8nNmKNMSES8wQbL5gOpAa/TEQq4CH86quvQt6ZkVVIWGxnBiLA+AvPu74DEBfPfijiIvxR6dKlA3eJ1gCBMV+LMTbVuNDQyA/Toubr52+C3zJex1icthd800agRXn30YZwL3hdxntPTBgnOn04SSVZOaLqX0GeXvhYuMunfX++ICtHVGMayqDpncNqVKj6eFex4VLM3BLCzbDhxURvRz2lvA8dc1V69+4trNgbTnJDVt5r2W9/9rqtXvbVCyTkDb+ECQzPOGISMt5XqVIlt7YUThmM4xBwF22NSblgqBE5wr1H6d7PnDDtoJ566qnO/R5HExxH0BiDJ2+HMgOSnnsjfiPjdZA9nVocVAi9BclDfPoMMScPLYy8onlIpoqs9hFVRXlm4b51xNKNe7jrZT1ZKVENjkBU4cAJ3s94FQ8VEyoJ8RLrUhFGVkYy2hhl2/chhxzigtuyVpUur6Hvzeuvv+7eF6wWOFEQRFa9DCEsOoCMCTFPDK9AiMsvgqcfTivMD1OC8pYNhxHGmryOV6HIikjtpNMpCt48IC/CTnH/mATp8Co+3nThfqeCrAJEtWhkuMvm2f6sJiuIqsOYRjJ4epewGlWsyPMyEirGO+M/1nNzQ1axXsPSGQKpRoCGFOsCBMVEZRwCggkquAx16tRxjghoIcGaAmZBCAECnzBhQvCpefYfb8BQBOUtEE42jGMRtkrjCAaTFQ4ppME6E0o4nhsPzmSTFUTVZMCV8owPiQr8spasIKqOY2+WwTNyT1ShHrR49hlZxYOWpfUrAjTgsRCUt/xEr2CcCkJi3IZID0TtIEwTk6rZr16B3vMy4Tf3QvmJK8gcOCUryOvJJ590496YD4lunwpJJlkpUU3xKVGBX1aSlZ+ICpCNrFLxqlqemYIAjTcLOxLDkMZdN8xffhunihdTFoJE0+Se0BIZ48LBgv8EHPa6tsebd7T0ySIriKrpgEoyZdGoaJfM0+NZR1YQVaexjWXIjK65Nv0lq2aMrJKFpOWT6QgwmZalOGKZO5Yp94qzBK7ojL/hAdmsWTMXQV/Ng6m6j2SQlSOqgZVkymJ/ExUYZhVZOaIa5y+iAuRkkhUvAOF0iMSNNxUD1wwCE3cOcwrzNgiZY2IIGALZjUBuyQqiajbwKpm6eHRGAJU1ZAVRdR7fxFcalT4BySQrzZMJhmpOadq0qduNNxEDumzMWYnHs0jzTeSbiZ4a2SCR8+0cQyBbECD0lc4fS/U95YasHFE9nDlEBZZZQVYQVZfxTWXI8/4x/Xkf1FSQFdEzgsmKa7IUhe73LkHuLU8yf+PhxWTIcOFkknkty8sQ8DsCrDI8dOjQtBQzUbKCqJo/fHXGaFQKZsaTlSOqx5v5lqgAOp1kpUuYQ1gszRCLdsWETdIRs42eIcJ/xheCg2z+/PPPLjae2uO3bt3qgruSHvNj8FwZ5pJg00e4juZN75NzcBMO7okSZgbX4HjipLmM7cMQyEME6LjxzjFnDC/IVEsiZOWIalBlmbYkM0x/Xgwzmqwgqq6PN5Ohz3fzjTOFF1z9nU6yYj6YalZ8R3ObhTBwr23RooVbN4lI2cysZ14Mc0iYAK2rwbKiKjERb7zxRjdexv1NnTrVpcUtmXWSCMWjhDd69GjnAYZXFBofeSHgQd6cQ3BgvMR0wH327NluBVvm8RDhnHiMJoZAJiDw/PPPB9497/piqSp7vGQFUbXIUKICw4wlK4iq24TmvicqQE4nWbGQnpesojlbMAOf9CzjgBBZgKUbCIGD4LhBwE6kWLFigZVydR2jjh07uvWW0JDoWTJehoaGxxcLCWq8RJxACFuFsCzESSed5EiR/5AZRMgaTxCnzvZnxdVoy2O4DO3DEMhjBOj08Z7ou0c8UQLZplLiISuIquWgKjJtyb4VoFNZrlTlnZFktY+oWmQEUVFx6SQrliPXF4YIzmp6C/cAzZw502lEvGwImgzx3Nq1a+fiI6ItEU0awZGC4JreJdSJ96ZLk/Nyck1MhCwH4V3v6Pbbbw8ssHfttdcGlk0nX+KsoVF17tzZaV+33nqr09xYKwjiMzEE/I4A88X0vdNvAvymUmIlK0dUg6tmNFGBY8aR1QNPtJPuE1tmDFEBcjrJigCh+rI0btw46rtC3Dav9sLgcN26dd3aSJgQlcTICM0JDQibPC+nOleoqZGVc3VJCOabsOYRglmwSJEibjlz8iNwp8ZUYwyMFVUhpcqVK7sIByyprov0Rb0BS2AI5DECPNOs06XvnX6znJBaFlJRxFjICqJqlQVEBX4ZRVYPPddO6vcpnVFEBcipICvMb/pSqOs6cdp09jwNf/CCcaFemBo1agjalcpjjz0maD5KUjpQjDmRfWzkzVgVIWYw26k8/PDDgukOYTyKeG+YCzt06ODiw1EenC0oN2ZC8iIgMONTCONYrJyqotfW//ZtCPgRAawRPNMsxqjvpEZSx/ydKolGVrW7XSythlTLeI1K8fMlWTUZWFGaD7p6vw2iajOsuq+dKRRY73cyyYrGn2jWkIIuaYJ2xAvDEuj8XrBgQSC4prccoX4Tnw2vPxW8/1jFleUesMErEd59993O8YFxqyZNmjivP7QsllNRIS2x4xDIjLV8yIdQO5gPEcbCGBNjaRXWBYLU1OOQ1ZhxqsDpguuoedGdaB+GgE8RqFKlinMsIjYgVglWGMYkTpR5QjF5369k3kI0sqK9zOQxqmCsfEdWv//xm/z8296w299//xV8D77/n0yyStfNotUEr1SKi/lvv/0WcxFIq56BehJkyoYJMZRrOvvREPk2MQT8jsDatWuF8VjM2YiSlZYb0zgT9FMhL658UjqMbRhyg6gemdkzFZfNszx9R1Z5hkQKL5yJZJUqOILNjqm6juVrCKQDgT179uS4TDBZcTC405fjBPsTMwJGVjFDlXhCI6t/sNu8efN+k4D/OWq/DIHMRiAUWWX2Hfmn9EZWaagLI6s0gGyXMAR8gICRVeoqwcgqddgGcn7ttdfcXKWlS5dKLBvOEkzuVY+8QEb2wxAwBHyNgJFV6qrHyCp12AZyZgE2QrEwuXb+/PlRNzzm1qxZEzjffhgChkBmIGBklbp6MrJKHbY5ciYwK0RF+KJIG7H5NmzYYFpVDvTsjyGQGQikmqzo8NapU8ct8sh0kkgRXu644w4h0LQKHovE9QznactwRb9+/TS5+2aO5KxZswL7sPbcfPPNUWOOBk5I4o+kkhWNMXN/CJPTvn37QIy3UOW95ZZbXMRtPYZXjcaO033ebzST4ND7zDXCxKZCJZBHcEwuJqMuWrQoTwDWstm3IWAIZD8CqSQr5jASb/O5556Tt99+W4YNG+amgYRDlcDRK1asCBymjWXScjiywppTqFChwHGmlhx00EEuCLVmwpp53jS6Px3fSSMrBXLatGluIT5WrGU+TTgh0vb69esDh7/44gs3gS6wI+gHZHP66acHNA4I6cADD8xBcORHRIXgsZ6VK1e6SmKtGRNDwBAwBFKFQKrIimAABH8mhmaw0ObSxiFEldHJ9JHICuuOdvQJl4YiwDWY0IxlB0GLK1++vBx55JEB93sizGigAJcojR9JIStuEsYPB6SOvwDkxIkT3e1FIivyIZoBQngeAGKdJGLIkQeCalquXDk59thjHcjsgyDR2ILFyCoYEftvCBgCqUAgVWS1ceNGt6JBqDlbrHhQunRpF7WG0GWkRSArwqfhsMWGmU81K5bkIZIMpsHWrVs7yxPnYOKjHUUIRM0yP6RbtmyZ23fDDTcI5JgXkhSygokJKxIcrYAb0rWRIDQvkJAVseOWL1/uNkL3kAcC07NsBARFMFbtNQDUqFGjXBrstU888YScffbZsm7dOrevevXqOeyrbqeIO59KMs1KEbFvQ8AQSAUCqSIryIKOeTjp1auXszIxTqUCWVWoUEFoN9mI+alkRRqIqEGDBm7Tc7CQ0Y4iECBBpVkNgWDXrKZAGXTtOT0nXd9JIStYm0jc4QRzIKSjQU5JB1kBJIvysRFfS8mK47B7o0aNpFmzZoFsx40b50BnB7Hm6FFQOQwKQmzEoiNUT7CYZhWMiP03BAyBVCCQKrJCWypQoEDYJX+wOEFExA1ViWQGJA2kw5gU/gAqu3fvdhasXbt2uTaaIRVCRhGvk9BSuqqCpk/nd1LIisE+bjp4eXK9ETxSAHLVqlW6ywERacyKBfgYk1K7KicSEJJFzTh21llnubxQbQmGSs/j6quvDuTv/WFk5UXDfhsChkCqEEgVWemYlQ6jaPm1c07HfvLkyVK1atXAmH00siIi/Pjx491K32hNKmhUOMjpEkPE+GTcipUe0rECspYj+DspZMWNMmYFWF7RJR4AEpBRL9X5IdKYFXkw9sRAIesieb1XiOINkCwEiHAN1o1hsb8hQ4Z4Lx/4bWQVgMJ+GAKGQAoRSBVZUWTG6Rm3x50cEx7tKsMhWLbU6eG2224LaEqRyIqwZ7oUECZEHV7hOvxnxW+GaVRIi+VLh1x0fzq/k0JWFJiF9gAS++bYsWMdK8PcXiAhGPXZj0RWAIKNFYHNvSRI/gA5ZcqUAE6sVsvqtlu2bAns8/4wsvKiYb8NAUMgVQikkqwo87vvviu9e/eWLl26yPTp052fAG0q3tQIy+2wPA/CsInu5z9DJQMGDHAKA9OM1FkNF3UvMTG8ggalS/dwLlYxlvrxKg7uImn8SBpZUWbYGlbu1KmTCxeEwwWOEwoYdlAlGbxUvGAAmIbSZ9l0HDMQ5gbgSKECwFSWd5APQmSMS7U2TavfRlaKhH0bAoZAKhFINVmlsux+zzupZOXXmzWy8mvNWLkMgexCwMgqdfVpZJU6bC1nQ8AQyGcIGFmlrsKNrFKHreVsCBgC+QwBI6vUVbiRVeqwtZwNAUMgnyFgZJW6CjeySh22lrMhYAjkMwSMrFJX4UZWqcPWcjYEDIF8hoCRVeoqPF+RFVE0CNNkm2Fgz4A9A6l4BmhjjjnmmNS12Pk453xBVps2bZIrrrjCNsPAngF7BlL+DNSoUSMfU0rqbj1fkFXq4LOcDQFDwBAwBNKBgJFVOlC2axgChoAhYAjkCgEjq1zBZycbAoaAIWAIpAMBI6t0oGzXMAQMAUPAEMgVAkZWuYLPTjYEDAFDwBBIBwJGVulA2a5hCBgChoAhkCsEjKxyBZ+dbAgYAoaAIZAOBIys0oGyXcMQMAQMAUMgVwgYWeUKPjvZEDAEDAFDIB0IGFmlA2W7hiFgCBgChkCuEDCyyhV8drIhYAgYAoZAOhAwskoHynYNQ8AQMAQMgVwhYGSVK/jsZEPAEDAEDIF0IGBklQ6U7RqGgCFgCBgCuULAyCpX8NnJhoAhYAgYAulAwMgqHSjbNQyBNCLw999/R73af//736hpLIEh4CcEjKz8VBtpLMv48eNl+fLlUa/466+/yrBhw2TIkCEyduxY+eyzz6KeE5zgo48+ki5dugTvdv9nzpwpzzzzTMhjmbCzb9++sn79et8U9bfffpNChQpFLc/JJ58se/fujZrOEhgCfkHAyMovNZHGckA4xx9/vJQpUybqVT/55BM57rjjZPLkyULDTEP4/vvvRz3Pm2Dnzp0yZswYt+vNN9+UFi1aBA5DmAsWLAj8T/aP6tWry+effx7ItlatWrJ9+/bA/3h/DB8+XB5//PHAaU8++aRAxn4RyOroo4+OWpyTTjpJfvzxx6jpLIEh4BcEjKz8UhNpLMfAgQNl8ODBcsYZZ8jWrVsjXhmyKlKkSCBNmzZthPMRSAgC69ixo7z22muBNJs2bXKa1IABA1zv/bvvvnNkt2fPHrntttvkvPPOk0GDBskXX3wha9eulddff92d+5///EcmTpwo7du3l5EjR8ovv/zi9kNwa9ascZodGtoHH3wQuJb+2LBhg9x///3uuuvWrXO7p0+fLieccIJ07dpV5syZIy+88IKccsop0qlTJ5k9e7ZL8/XXX0u/fv2kc+fOwnUQGnzIeeXKle7enn/+ebefa1SpUkWuvfZap22yk2vs2LHDHd+9e7fDpkOHDjJr1ixRcxzng/NDDz0kffr02Y8k3njjDWHjnnv27ClffvmlrFq1yl177ty5Lm8+fv75ZxkxYoTDZ9KkSaKmvL/++kv4Tz1QZiUrykX5VPitmrGXrN577z3p0aOHw+/TTz/V5PZtCPgKASMrX1VH6gtDA1qsWDHXaHXv3l0eeOCBiBf1khXn1qhRwzWMP/zwg5x99tkybtw4oUEtXry4TJs2TSCcwoULy7JlywQT38cffyxbtmyRSy+9VH766Sd58MEHpWTJkq4RhcSGDh3qGkkK0apVK2nZsqUsXbpUWrduLfXq1XNlQ5uBZGioMUlyXSUCLTxkM2/ePHdNtEaIDq3ttNNOc+dBBitWrHAE/cgjj8jq1avl999/d+XGDMk1zz33XEeE3377rRx11FHStGlTR2qnn366S8+9UKYmTZq463DtmjVrypIlSxzBFS1aVCgrmiJa6+jRo13xrr/+ernkkktkxowZLs+2bdtqsd03JtZTTz3VkTGEw/1xDciVe6EOuN9q1ao5MuZ65AmpI3Q8rr76ann11VcdkSpZkQ5iVaGsixcvdn+VrNAyzz//fFdmSPWcc85x96Ln2Lch4BcEjKz8UhNpKsfbb78tFSpUcFfbvHmznHnmmfs1/N6i0FAeccQRjkiuvPJKwazGONaUKVOkQYMGgaQ0rBDZH3/84YiF/3/++ac7rmTFH0iMdCpKVoyfQBAQCIJ2c+ihhzrNDAJAW0FotDFLfv/99+6/9wPNDQ0G0tm2bZs7dNFFFznC1HSQhpoxIZWyZcsKmhhb8+bN5bHHHhPI6sQTTxQ0FkQ1PX736tXLkYPmp2QFUVStWlV3y6JFi1ze7IBY0OwQML/44osD6fgBWaH9Id98840cc8wxAezq1KkjL7/8snz44YdOw1WSRms69thj3Tnkh4aK0ImIh6z69+/vOgaKAZ0KtFgTQ8BvCBhZ+a1GUlweGv2zzjpLrrvuOrcVKFDAmY7CXRayoheOiQwC0MYSArnrrrsCp6HFlCtXzv3HrIRWQo8d8oiFrDBPMejvFbSKr776ymkrmKlU0ELQylQoU6NGjeSGG25w5jzOi4Wsnn32WUEbQtvTjUYbskKbUunWrZsjMf6HIyvMhmhDKpASeSOQ1cKFC91vTJholl6BrMgXYRwJolRp2LCh0+4wC3rHGCHzgw46yCXDnKvjcN4xKzQrb8cglGbF8wDJ6v3zjXnXxBDwGwJGVn6rkRSWhzEOzGk0pLt27XIbJNCuXTt3VRrS4EF3rxnQWzQ0idKlSwe0D3rod955p9MIVKOiAWacxktWjE9hslJRzQrzYcGCBZ3Ji2NoP5ASRAQxRiIrHBzQEBHukd9KVpgnIU8VNIeNGze6v2iZF1xwQUCL0TSRyKp3795unE7TqmaFWRFy1nEkHEoaN27skiWDrKgvNCbVKCE/8EfAE00W8Y5Z0cGAGMGQekXjDDYDYsb1kqzLxD4MAR8iYGTlw0pJVZEwe1WsWDFH9jT0mJMgC8xJEyZMyHE8HFlBSHXr1nWmLjQazkULooePqQ1HDIgAQvCSFRoRmkPt2rUFRwwlKy6Klx1Ec/PNNzsnDDWdRSMryk6jzHloEmiOSlYQKASFEwWCJkFZIR0acYiaRp/xsvLly8u7774bUbPCvIcGSPkRJSvyYryNvMGFcUGwQ5JBVuSDcwaEiLaFkwrjcAj1SieE61IXjBkimGS598qVKzvTLybPYLLCaQPzLrhhBiWNEq7LxD4MAZ8gYGTlk4pIRzEwEYWaW4NHHI0tYz40cF5hP5pGOMF8h0am4zuk4xo0+urNxzGv2Y5evpoUGf+iwVShDN5z2R+chvJQLq/QwKJB4cSB9qHlIR3jPexH+A9Be3GAzZVVDgAAIABJREFUZCFUrqNpvPdM+fQYx0mPxx7CtbyNOx6OaIWqXZKGcSTFNRgLjnvvLxhvsNJzSYvHIWWFoL0Cvtwn54OhiuLCNchLy+rFkHPoZFCPelzPt29DwC8IGFn5pSasHIaAIWAIGAJhETCyCguNHTAEDAFDwBDwCwJGVn6pCSuHIWAIGAKGQFgEjKzCQmMHDAFDwBAwBPyCgJGVX2rCymEIGAKGgCEQFgEjq7DQ2AFDwBAwBAwBvyBgZOWXmrByGAKGgCFgCIRFwMgqLDR2wBAwBAwBQ8AvCBhZ+aUmrByGgCFgCBgCYREwsgoLjR0wBAwBQ8AQ8AsCRlZ+qQkrhyFgCBgChkBYBIyswkJjBwwBQ8AQMAT8goCRlV9qwsphCBgChoAhEBYBI6uw0NgBQ8AQMAQMAb8gYGTll5qwchgChoAhYAiERcDIKiw0dsAQMAQMAUPALwgYWfmlJqwchoAhYAgYAmERyBdk1bdvX7d0OcuX22YY2DNgz0AqnwHvytdhW147EDcC+YKsWrVqJQcccICULFnSNsPAngF7BlLyDNDGsP3www9xN8R2QnQE8g1ZFShQIDoalsIQMAQMgQQR6NKli5FVgtjFcpqRVSwoWRpDwBAwBKIgYGQVBaBcHjayyiWAdrohYAgYAiBgZJXa58DIKrX4Wu6GgCGQTxAwskptRRtZpRZfy90QMATyCQJGVqmtaCOr1OJruRsChkA+QcDIKrUVbWSVWnwtd0PAEMgnCBhZpbaijaxSi6/lbggYAvkEASOr1Fa0kVVq8bXcDQFDIJ8gYGSV2oo2skotvpa7IWAI5BMEjKxSW9EZQVZ//vmnfP/99/LHH38khMamTZvktddeS+hcO8kQMAQMgVgQMLKKBaXE02QEWU2bNs2FMXn44YcTv1M70xAwBAyBFCJgZJVCcEUkI8iqTp06jqwuvPBC+fvvv1OLiOVuCBgChkACCBhZJQBaHKf4nqz27t0rhxxyiCMrIhqvW7cujtuzpIaAIWAIpAcBI6vU4ux7spo/f77UqFEjQFZ33313ahGx3A0BQ8AQSACBdJDVd999J3PnzpXrr79err32WrcNGzZM5s2bJ48++mhg34gRIxK4A3+f4nuywjHiueeeC5DV8ccfL//5z3/8jWoelu6OO+6QF154IQ9LYJc2BPIWgR9//FHOO+88+euvv9JakHSQld7QZZddFmgTR44cqbtl1KhRbv9tt90W2JctP3xNVpgAV61aJb/88oscddRRgcqZPXt2tuCf9Ps499xzZcOGDUnP1zI0BDIFgWXLlgmNebolnWRVvnz5QHs4evRod6ufffaZ++7atasYWaW59hcuXCgLFiyQxYsXS61atQKVU7du3TSXJH2X+/LLL53mCOF888037sK47q9fv17eeuutHL1Fjq9cuVJ2797t0rFC6aGHHiq//vqrvPnmm7Jz584cBef/6tWr5ffffxcebHqebDt27BCuwTmff/55jnN++ukn12HYtm1bjv32xxBIFQL6TPLsrV27NvDM79mzxz3vPK8qOFy9++677tnVqS2YxW655Rb3/vC8ey0xpH/77bdl69at7j346quvXFbkzfvDO6XviF6D708++cRdmw60ykcffSSUUSUUWW3cuFEPJ/XbS1ZjxoxxeY8fP9598/4/9NBDSb2eHzLztWb14osvBjDCJqvLRh988MGBBjqQIEt+FCtWTPB+vPTSS2XKlCny6aefyiWXXCI333yzVK5c2ZE2t/rKK684U8ftt98u5cqVc3e/dOlSOeecc+TKK6+U2rVry5FHHimQH/L4449L4cKF5YYbbnB5n3DCCY6gaAzIn3M4xjnMS0PmzJkj559/vnvxyVdfCnfQPgyBFCHwxhtvyMUXX+yWni9durT89ttvMnnyZMEb+NZbb5XTTjtNZs2a5TyDGzVq5Ma0mzZtKn369HElaty4sRu7ueKKK6REiRLSsGFDt59GvEqVKkJDz/tVpkwZuffee90xyI28ypYt6/bzPiB04lq1aiUVK1aUFi1ayMknnxzoBGJu5N1ZsmSJS+slK6xBjK/37t3bHUv2h5esOnToIEzr4Z1XoUOabeJbsnr//feFHpLKzz//HCArSKtXr156KOT3vI1fynOrPwu5jV+0TX7+7b8hz8vLnTzgBQoUkP79+weKwUvz9NNPu/9oVpAMgtOJ7tfEQ4cOlWOPPVY+/vhjtwuTIL1ECI/92iMdO3ase/lIBAEdffTR8uGHH7pzGjRoIEOGDBF6nCeddJI7lwM0BC1btnRp7MMQSCUCmLX+7//+Tz744AN3GTSn008/XXAuQNq1ayc9e/Z0VoDDDz9c/vvfnO8yHaybbrrJaWSYBCE5hGe4fv36juTQ3jAV6jsE6dSrV8+RExoWbQzfw4cPd51HNDI0t7POOstpWC7D/+V54IEHCmPFdBw57+WXX5azzz5bChYs6IIZaNpkfnvJCrywsPDuqvDOh5Ppb++WCwe+KUUHrN1vO6D9Mqk00p/DCL4kK9T06dOny7PPPutUdlR0NAk0De+GaSyUDH9lq9R8eJm0f3rDfluJLq8J22ff/hLq1Dzdt2bNGvdS6su3ZcsW9/Dj+UOP8PLLLw9E4mBQFWeTwYMHB15WtK8BAwa4e6BHeMQRRzgNdODAga5XqDfXt29fad++vfvbunXrHCYDXmYGaSG+QoUKOW2LXiWeR5hCTAyBVCPQpk2bHJ1RNAfIivcAKwLPKKZvzHtoR+xbsWKFKxZmOiwvalF45pln3DPMwWCiwdLAO4YWwvQYNYETLQcCQhOD+NDueP4htwceeCDHXE+0q2OOOSZHR1otQNE61LnB0UtW48aNc1nhiKYCoYcSiKpgt9el0sDXpdrgFTm2Yr1fF8jq8C6vhzo1z/f5kqxygwpEdf2Q12Xp+9/Jm5/8mGN78IUtUq3vIrmsx1xfkhUk4dVeePgqVarkepSh1PrNmzdL8eLFnSYEZnhAKYHzEvIyIphFHnnkEfebHmXJkiWFlxjhN9oXAkmiTdFZaN68uUBqdBQgPhNDIF0IlCpVyo2T6vWqVq0qEydOdFoKz69XeGY5dthhh8nXX38ty5cvd6Y5TUOnjOcYqwUkomNOmL/pzPFsM3fzoosu0lMEBy40LciQcxjf9Y5NBRL+7wcamxKUfqdSq+KyociKdxWhk09bECxKVDWGrJCGj67MsV05cIUc3nmZHH/bs3Lp4LXBp/rif1aR1fBXoxPVI88tkcoPLfAlWWEb97qh6rgUNnsE1R5zBCTFPn5j7oCI6OHhXKGDyU899ZQzX3Ae+Xbs2NGREZ5C9Dzfe+8913PE7IgphLwwP2J25DdmDe2d0UCop5EvnlorRNYiwHONloPZX+XGG290hMN/yEk1IByCkF27djlvYcyEvAuMa6lgFWD6C/nyrDO8gDkcQqTBRzCLn3HGGW4sCq2KY7wTXAsS1A4gRPftt99q1oHvUNpVKrUqLux1XVfNiv2MN+M5HUxWjqi6r5BIRHV664lyapsnjKwCNZuiHxDVDVE0Kohq3MylviUrBkgZl1KBeJo0aeI0JHp+am/n5cLhARMFmhi9Rl4oPCZVIB4lPl5qtCweYMaoMGvQo2Qgm32YOBg4rlatWsB8gvcfJhZs7zh9PPbYY5q1fRsCKUOAThQmb6/wbGNB4FnFYWLq1Knu+UXj4h3g+WQf0rlz58Bv/mM5QONC7rvvPmc6x1qB+fzBBx90+9u2beveLcZ4cd7o16+f67BxEA+7M888U4oWLeqcL3QczZ3o+UB7S4dWBZnibIZHNO0FG5OBCZ4ABrQX7NOOJkWcvmG3FIyBqM5tPsLIylOnKfnpiGpoeNNf9b6LRYnKz2SVEnAiZIrZEa3LxBDIzwigSakpPFEc0K5wYoKwUq1VxVPGeIjKyCoeZBNI+ygaVTiien6LBBOVkdU/IAebHf85Yr8MgdQhgDkN0xUOQddcc41z/kErUBN26q68f86hzI77p4ptD9pVqseqYivJvlQxEVWbiQJJ6WZmwHgQjiNtIkRlZPUPwJhHeFlNDIF0IcD4EdMv0ED4xqzH1An+Y4bT8aF0lYfxWB0DS/SajIExCbd69erObN6sWTOZMWOGG/NKNM/cngdRHR3N9BdEVKZZ5Rb1MOdHJap+OU1/kJRufnWwCHOrttsQyAoEGGvByYHxU51Iy40xfko8S+ZW4RzwzjvvZMz9Mparq0JwX0yqV1d2zItEuUi3JEpURlYpqKncEJVpVimoEMvSEIiCAE5AOPHgwMD8QCaxegWHB+ZBoWXlRVw/b1li/Y3nIRohjkk4XjDuxVxIvAiffPJJZxI89dRTA05L3nzR6J5//vnApHvvsdz8zg1RGVnlBvkQ5+aWqIysQoBquwyBBBFg4iyOOkxoZ8pDOCFcEg07y1sQ7xMTIHOdELzZ8G4ldiVLW5AumMzC5ZuK/cTzY+6WRswIdQ28Zf/973+7SDKQE6JkpenxwiUN00tCCVNRihQp4qLJ4OEbyi0+1Hnh9uWWqIyswiGbwP5oRHVNBNOfmgCNrBIA3k4xBCIg8MUXXzgXcqJMEG0iFHExxQLnAyU0xq5OPPFE6dGjh3MN11BgjKNCVt6QYxEunbJDhHo76KCD3LQOtCRCL3mFOICYNL1hjYLJivRMSiYdJMxEfCb6z5w5U1566SU3/wuS4n7ZmP+I2zlp0ETjkWQQlZFVPIhHSAtR3RjB6y9WogomK31Q7HvfC2M4GA7JeAaCiatmzZo5okTwqt91112uIYe4vII2QjBnQoExB4ogsyx5Qey9O++80513zz33OCKAHDt16iSQBxPeu3fv7uIG3n///S40EnOpcH4gygTzpwhHRtDXQYMGucgvkBLmPLQ7CAUtkVh7kAgOH4oFZSLcE16LRLMg4C1jUoQg0w0SIgCv/ucbUx95QESaVyzfjH2BDy7x0SRZRGVkFQ3pGI4nk6iMrKwxjqWxsDTJeU5wmmAyLlHRGY9SzYoIEYxfMXGdsSzCgyHE/AN7Jrj/61//iquBT1edQWJohQTRxYynG6HKcLbQ/3wzZkW5IFNCQS1atMiZQgl2C7lBmt5ygwWkzCTfWFz5k0lURlYxkFGkJNGJakmOCb9ec1+43+YNGAlxO2YIxI8AY0wQEw0v35ATDbLGtJw0aZI7xngVZq5TTjnFhT7iStOmTXONOk4KaDXk8frr/wRTheBwSGBsiAac6RaMlRGSiTlbaB9EdmCMifWoIDxCMBHMlnEwXNMJF4bJbvv27cJ4E6sMcD3CL0GURHYnjBnjVcTGZDzNq1kRjonoGJg4KQvBc4MdQUKZAYn6zv2wpEmwUAY00AsuuMBphESUIe9YJRaiKtx6UmAOFWQUbbN5VrGiH5TOEdWwMJEpnt8i1/SPn6iCNaugS9pfQ8AQiBMB3NAhHwiKsZhQc/cgFrQRtCm+IQevMC6EVoHbN6a0vBSWAsEpArJiTI25X6oRarlYogTNz+uaHoqs0JIY+4I8vQKJE78TskxEUkFUplklUhN4CDFGlQKiMrJKsELsNEMgBAJoOGhLoQgqOPmrr77qxqjw/Fu1alXgMESAFka4IsZqUrW6buCCUX6wSjdaVjBBeU9DUyPILXEGVXsMJiu0KpwrWMEgmZIqojKySqCWIKo6w1aEXuYjFxqVmgXNDJhApdgphkASEICUjjvuOGcaYzyHjXXTMJURMFbd2ZNwqZRnwerblBuTINqXkhUEjrMGS5AwdwzTZLIkOlEtlyJt4jP9eU2DZgaMo6bunvyWWxzxkdc+lPFLtufYuk7bnLDpT4nKNKs4KsOSZjwCrNWEFxwD+WgLkQRNAicAPOfwktPVoyOdk8gxxpeI/KBrMhH1n3lYsWhniVwvledQbrRBSIvJzjhdsFQP/ytUqBBYnTsZZVj60fduccQjOi+XU3rm3I7vvtwdK9I2Z6w/LxHF8tvIKsaa+vOvvx1R3Th0hTQZ9cZ+Gyv8Dpm2b5kPL/nE+9s0qxgrxJJlNAKQDppL79693Yb5LVzsPYiKNcxIA7nhwYc3m85/SjYQXE/XZMJNPZMFzWn48OHSqFEj58WIez2hpSKZERO53zErd8q/OyyRMzrP3287uuMi+b8OC6I6UEQjLCOrGGsGsirVba4sfn9PyO3SHvNk1PP/xPiLl6Q0vZFVjBViyTIWARbho5f/8ccfB+6BiaZ4zxFkVRtSPN+YD8S4E+Y5POlUmAgbi/u0po/nm4VF0T50Y5zIJDICkNVxHRe5Dj0dd+9WuNMCOanDq0ZWkSFM3lEjq+RhaTnlbwSYDHvDDTeEBIHJtszxYWwF7QazHKvrMvE2HeLVqpSsMl27SgduRlbpQDnGaxhZxQiUJTMEoiAAIRHqJ5TgRk30BaI8EAMPIcIEkR3SIcFalRKWaVeR0TeyioxPWo8aWaUVbrtYFiPA/J42bdqEvUPGpJjoqpNQb7zxRkdeYU9I0oFQWpWSlWlXkUE2soqMT1qPGlmlFW67WBYjwCRb3KaZ4BosjEPhbo0XnkY3HzhwoJQpUyYwlhV8TrL+q1bFCsFcE6IaM2aMuza/TbsKj7SRVXhs0n7EyCrtkNsFsxQBgq0SgaFx48bOZZ0FDQn4ykTVIUOGuMCthB1i/SUWPyTaOZElCJ763nvvuZBDBJDld7IErapKlSrO9MjvKVOmOLKiTIRSwgyJR51JaASMrELjkid7jazyBHa7aBIQwPuOSOBE7/aLsHQHjhPFihVzUcJxSYfECIukGhfazYoVK1yRmVfFsYsuusjNgeJeILJkCYTodYX3kpVeg/BDhGYy2R8BI6v9McmzPUZWiUPfrVu3HCFsEs/JzowXAQKpopUQ642o2pAEC++ZREYgFFlFPiN/HzWy8lH9G1klXhkEAU1VxIHES5U/ziSiNuYtFSbhEqHbJDICRlaR8Qk+amQVjEge/s/PZIUNH2Eiptf0whwYJnJ6Bfs+kzfVk4ulEFiWgf8sk6DLbOs5BNrUJbr1OhzT3xxTs5CewzGukapJoXodP34Tluiqq66S4sWLB+YegSkkdP7558vZZ5/tFvYDo/Hjx7tlHgi1wzmsW8TvwoULy5VXXukwxjOPZTFwaiBCBCGNGDcin6pVqwZWhaUeWeCPyOTMeWL8hn0TJkyQXr16OajQ2jgnOIq3H3GMViYjq2gI5TxuZJUTjzz9l5/JisFw5sUQeZqGjcaoevXqbgAcry4meSKLFy92DSY9+YoVK7p9c+bMkUsuuUSuu+46N6h+3nnnBSJBT58+3YXcYR/LHtCIIgxqV6tWzZ3DejqE1tHoBTSmNNRXX321O5dr5idhFVi0JchItVVWpMW1GpMfBEI9EXSV8RVICu87OhYcJzArZkD+kwfkhffbV1995Zac4D/OBEzKZT0j8CYdzg6MIdFxgBiPOuoo1wEhwgSdEZ4Jyvbss89mRXUYWcVXjUZW8eGV0tT5lazQbA488EBh3IlGC82KBpCozggL0dELR+idE7ka0aUJaNhYhZWlFdCu+L1161YXRocQOqy5Q74dO3aUGjVquHMHDx7s0mmsuCuuuEJYvZWG2LswHsuE33333e6c/PJBANJmzZo5LLhnYr8RQdsbPZvID9SDkhGEgrDYn2q5/GcpCZZERyNCHnjgARc/zv0RcWTF4n8QFlqXasss9c7yEyr16tVz86KYHxVK1m77Vir3XRJ1q9h7kZTuOT9qukoPLZbL71sQNZ1e84Mvc2r/ocoYvM/IKhiRyP+NrCLjk9aj+ZWsFi5c6JZHUPMdBMI6OIx7tG3b1nlzaW8ad+KSJUu6WG5aObVr13ZRtflP5GoaR3r8aGPeEDosJEfUAqRhw4bSv39/zcJpWc8884wLYoqWx7XRxC699NKEF4gLZJ5hP9AwceEuWLCg6wBAHN4FAaknFgnEcw0yokMAaSEQGBqpChoaGrIK2i8r4yJKgnRO8NSjrlVwM6dzgXCc81jEj05IKJmz/gup3n+pTFv9ecSty9SNUveRlfLo/G0Rt3ZPrJeSQfHnvLHovL9Jt2bbt6GKFXGfkVVEePY7aGS1HyR5tyO/khUmISI1qzAOgpmPJbSZ56IkxnF63rzkmJJefPFFdwqakDZimKYuvPBCt58GjuXE9TxMe3oOmhru1ghmJxpcrkU8OQiNJbZxM9ZG2CXMBx/e8ULwIxwRq9+WKFEicPfswxwHNsFk1Ldv3xyaKCvKsqmcdNJJgdVliczNMhkIWrU+A5AgmtzUqVPdMToOLVq0EEyRmkbz02/Iqs7Q12X7N79F3EbP3yatH18XMlC0N4B039nvS8muOYOlegnK+9vISmshtd9GVqnFN67c8ytZNWjQwK3no2Bh/oOslCjU3OcdVMcsxMx/xkF0bIPz2YcJC8HkN3LkSJePRguAgPbs2eMmY2q0ABaKw/SFEHaHtYxU9Nr6P9u/cWpAe2UrWrSo034Ye8LpAcyZh8T4n45lYZZDY1UBO8YYqQPqj7EqgsYimAjR1rRe0Wzvvfded2z+/PnuWKtWrZz5D5MgHRCIEZMjGjPmXNZOUmcZvSbfRlZeNLLzt5GVj+o1v5IVDZN3YTzMQ2hHNFKQSK1atVwt0bBhjmIgHtMSXoKYqLxmJxpZFrZDMDfROBK0lAaVtY1oKJkLxDXxbOMYk0Z1KQmcKXAQIE+uz6J9mSiYUvG4Q2NhcmuskRiYNAtxgIOXqMEaTWjJkiU5PCTxzEO7UkEL5lytT75xpEBYooNIEiqMc3k7IIw5Ujd4YOr4I+npXKiwpEeoSbNGVopQ9n4bWfmobvMrWYVyD4dUcHbwNlRU1bfffus2rTbMgl4zISY97bmThvPV9V3d0yEgnCY4j96+DuprnpTn888/DzSyuj8TvtEc0Uo1OKr3u379+jmwy839QCZoq2hcocgjN3kncq6RVSKoZdY5RlY+qq/8SlbproJgs2O6r5+q60FUTI5mWfEBAwY4woW4iYGHhoXTCtokZr3cyurVq53m9umnn+Y2q6Scb2SVFBh9nYmRlY+qx8gqPZXBHCAmH/tdMKF98MEHMRcTk9whhxzi5kCh+XgFZxVc+pkiwLhQtomRVbbV6P73Y2S1PyZ5tsfIKs+g9+WFMU8yzwtXfVy7IxHXunXrnOkPp4UXXnhB8Lp799133X299dZbcsIJJ8jcuXOlXbt2TsPC/JkpghlXHTrCldnIKhwy2bPfyMpHdWlk5aPK8FFRmKzM3DHGn8IRFyTFccb5EJxLcOmfPXu2CzKrE6lx7Scdc8oyScaOHeuca8KRtpFVJtVmYmU1skoMt5Sclddk5R2Mt98HuEbdzzgw10nd75n8TOQIrzBuxTjVqFGjArsJh8Q90ehnmjC/jvuh/MGkbWSVabUZf3mNrOLHLGVnGFn5nyDymrwYk2LiMg03xKNCxAciPKi7OXOU0Kxw5SfuoYZD4pt7UPd+zs/re8rt9SGuu/pPsknB+jBk6beRlY8qNq/JykdQWFH+hwDjT4Q2CkVQXpAI2Euj/+qrr7rJs7iUs74UMnr0aBfOCm/BcePGuXR486nklizy6vzDDz/chcQCo5mrt+cpWQ198iUXHYUIKbFuTCUAO4Iqm0RHwMgqOkZpS2FklTaoM+JChIMi5JBXgwpXcCI8MJmZqBNEMmdZDa8MHz7cBQPGtZ2VcDNNiFpRpkwZgaCI6whBMclYZdLSbS6W38Xd5kqkrWTXuVK848tSqtOciFuJTnPksu7zpGzPBVG3S7vPk0IlqyesoRpZaS1G/jayioxPWo8aWaUV7qy72IwZM1yDyVyqYG8/vOmI4MGYD1HsM0nwBmSMLZigvPfw4ps7xBuvL9LvC9tMkrOqdIq4nd9omFTus1ieWfVF1O2KBxbI2JlLnFaLZhvvxkR3k+gIGFlFxyhtKYys0gZ11l4Irzk8B5kYXLNmTTdmRUQLSIq4ehqnL9sAwMEiEkF5j13QYqyccXnbiNu5dfq5KO7e4LbhfpfvtTChqOvZVgepvh8jq1QjHEf+RlZxgGVJwyJAHMBbb73VxT9kIjCmQSKWs5xHtoqRVbbW7D/3ZWT1DxZ5/svIKs+rIKsKQIzD4LiHWXWDnpsxsvKAkaU/00FWJ7d9Si4bvNaXCB7gp1Klg6w6j18kV/ZeKD/88oefbt3KkgIEXnnlFVmxYkUKcvZflkZW/quTZJco1WRVuNUEObLzMpm5aXeyi56U/PIVWSlRbdv1U1LAs0z8jQAxAMMtVujvksdfOiOr+DHLtDNSSVZKVC9s9CdRUVf5hqyMqDLt1cxdeVkO5dhjj3UxAb1LqOQuV/+ebWTl37pJVslSRVaZQFRgmC/Iah9RLRDTqJL12vg/n4ULFwbm/bCgYbaLkVW217BIKsgqU4iK2s16sjKiyv6XONQdEl1dI0u0bds2VJKs2mdklVXVGfJmkk1WmURUAJLVZGVEFfKZz/qdf/75p4u0rmRFuKZQqzFnExBGVtlUm6HvJZlkBVEd0XmZ+HmMKhiFrCUrI6rgqs4//4lQoUSl30RVyGYxssrm2t13b8kiq0wkKhDISrIyosr+FzfSHd57773StGlTKV26tIsDePfdd0uzZs0inZLxx+Ihq6KtJ8hZV7ePuJ130xCp0neJhIta4d1vESzS8/gkg6wylahAOOvIyhHVg+ZMkZ7Xx39X+fvvv6Vr166CB2C5cuXkwgsvFPY9+OCDQrDbbJWX3/pCSnR+TUp0fjXy1uVVIfBs+V6LIm5l75svpbrOjWkjOO7LGzJn5eVMfQZyS1aZTFTUWVaRFURV0YgqU9/FpJSbsSnc1pEKFSrIBRdc4H5DWLrWVVIu5LNMNn22x8UGPOPG+yXSdl6LkdJ6/JtRNaa+s9+Xav2Xydx3vo26lX9goaz+yILRpvqRyA1ZZTpRgW3WkJURVapflczL/8orr5Tzzjsv8wqeQInf2fG1zZm6AAAXbklEQVS9I6si1/eQSNu5zUfETFbXDFgaldQwB5oZMIEKS+CURMkqG4gKuLKCrKIRFSF37rjjjgQeDzslkxG46qqrXDDbTL6HWMvuN7LavXu3fP311/ttmGe9+/HcNIkNgUTIKluICoQynqyiERU3+cQTTzjvsPfffz+2p8JSZQUClStXdisEZ8XNRLkJv5HVxo0bnYOLemOybAvR8DHTzps3T+rUqSOkyQ/RRaJUXcyH4yUrR1SdlsnzPg6hFPPNZzpZxUJUgKFk5V3KPB6QLG1mIlCtWjUpUqRIZhY+zlL7jawo/scff+zWFVPCGjdunLur5557LjCuGOdt5uvk8ZBVthEVFZ+xmlWsRMVNGlnlz3f8mmuucUvc54e79yNZgfuAAQMCc96I1fjSSy/JN998kx+qJOn3GCtZZSNRAWZGklU8RMVNGlkl/b3JiAyvvfZat5R9RhQ2l4X0K1lh9mP6gGpXLVq0yOWd5t/TYyGrbCUqaj3jyKr9uPjd042s8ucLft1118lJJ52UL27er2QF+Dg4KVnxbeb4xB7JaGR1RIeFckQWjVEFo+RLspq2ZqeE2kp0eU3K3jcv7ujpRlbB1Z4//teuXdstEZIf7tbPZMX8tqpVqwYIq3jx4jZmlcBDCVkd2mGpFOq4cL/t4A5L5YD22eNMEQoeX5HVX3/9LTcOeT3sBll98OXeUPcRcZ+RVUR4svbgjTfeKMcff3zW3p/3xvxKVkzGJi4j41THHXdcgLAefvhhb/HtdwwIbNz5kwxZsiPstvjD72PIJXOT+IqsUgWjkVWqkPV3vrhGL1++3N+FTFLp/EpWENUPP/zg7nLixIkBsjr00ENl27ZtSbp7yyY/IGBklR9q2e4x6xFQsjqjbi+JtJ3XarTUH75KRi/cHnG788m3pVq/pTJ7w9dRt3IPLJA123KGW0KjmjJlijz//PMB7P/66y855ZRTAoRVvnx5+fnnnwPH7YchEAkBI6tI6NgxYSL1nj17DAmfI7B1514p0XmOFO84O/LW6WUp3WOelL1vgVweYSvTc74QzLZcr4VRtzL3zZe3P/nnGSE2I8u0vPLKKzJ//nz56quvHHrr1693+9ivGys6Z/taYz5/dDKmeEZWGVNVeVPQiy66SN544420XhzzUMWKFV30CXriY8aMiXh9evEmhoAhkN0IGFlld/3m6u4w0RAm59dff81VPvGeXKtWLenTp487bfr06VK0aNGwWaxbt05KliwZ9rgdMAQyFYFdu3ZJmzZt3MT2c845Rzp06BD2XVy7dq3UrVs3x60+/vjj0rdv3xz7vH8IebVgwYLArnfffdfNiSOuowqhsVq2bKl/8/TbyCpP4U/9xQlxQ0y2zp07y+bNm90FmffSsWNHue+++2THjh1uH2s9jRgxQlioEIJAVq1aJbgZY9Jp3769zJgxw+3nY+/evTJ48GCXzzvvvCOPPfaYO/bFF1+4cQquwTnPPPNM4BziwD311FPuGsOHDw+7ZAfrUD377LPuGkShYC2qUPLWW29JgwYNpFixYoJ32ZdffinLli1zmuCgQYMC196yZYt06dLFRVPgnLlz57rsMEGByYQJE4QFGxUfNLUXXnjBlfORRx5xZirKPmrUKPnggw+kW7du7t51KRL1eON+77//fvnkk08CxX355ZflnnvucemV9L/77jv3H6xffPHFQFr7YQgoAryPvHvt2rUTSGvnzp3u2YJQQgnPcokSJXIcgqg4P5zwXN51112Bw8OGDXPjiVOnTg3sIwB4uPcvkChNP4ys0gR0bi6DrZ/GN17vKcYCjjzySLcI4ZAhQ+Sjjz6SsWPHyuWXXy6vvfaa9OzZ0x2jbK1atXIP9tKlSx1psQ/yOu2006RJkyYyadIkKVCggHNBpuG+4oorXCR7yAfNp0yZMu4WSXf22WdLo0aNHFkULFhQ6PUxuH7DDTfIrbfeKosXL5YqVapIv379QsLCvUJArEUFqYUz86FVXXbZZW4V4PHjx8tPP/0k9erVc5HWIY05c+Y4Ajr55JPdfaOtgQcvJVKzZk3XIBASCOLgnhDuATMkWIAbGuamTZvcBGPmC02bNs2tQKzmSXDEWQCCo1Nw5plnuvuF3FmteMmSJQLpQVI0POeff74jd0iTScvgY2IIeBHgGTv33HMlOCo978LNN98sP/74o0v+wAMPuHHlaGRF5BDVmOjY8e7w/PEsqjCJ/vrrrxdvlBGO++X5NLLSmvL5Nw3ogQceKJdccokMHDgwJuKC5A4++GDZunWru7tvv/1Wjj76aPnss8+cFkLDCoEg9OIwG3iFh5YHmBcEssHdmOUd8PJiYUMlER5+XYLl9ttvF7QhPQYpoV3NnDnTkSQ9Rpw2IAMIJlggMkweJ5xwgiMYjqOlEUE9lNCbRANUgSggGBVePkhX5eKLL3baF+XjGhpcddGiRY74SMc9QN7ehgL8Cxcu7LQ90qBdoY2BLfOH1D0bIidKA6TEisU33XRTjgmw9HTRaCFW3OohK7Q1E0PAiwDPCc9hKOE95fljagbPNwJZnXrqqe4d5jgbx1SzwlrCbzqsdLh4/tH0DzvsMGdd4bnlfXj77beFzh3HP//8czdPkXffD5KvyIpYcfSuM3U744wzAm6/NIjRiIsHFk1DBfWeB5KHtX79+k7DoNFEIImzzjrLkYIGGkW7wayGfPjhh3LiiSe6h7hhw4by6KOPuv18YCunMUfQsLx2cLQuNAu0M2LEVa9e3dnAcWlWQtOMeJEKFSrktCG0mmOOOcY15BCHl4A0PS/bIYccIr/88ovbhebCy6fmNjRLxtzUGw0NCcKlV8qLCHGrKQ8NjvEBZPv27Y6MIU0IH4GM0cBUmjVr5kx5lIt7U4GkDjroIGfixCQKWRP5XQkV/CF6nkXMMJglTQyBYAR4vjBdhxI6UZjK2XhnEMiKCfCY93XjuJIV7xrPIvsgORWsC8xDRXuiQ0g6rCmYxJ988klp2rSpJs3z73xFVt74ZNnyG20LLYVxpWC57bbbnPlJ92Neo+EPJzTcrK7L2AwEABFow8+yDjzYCA88Ji+ElwXtjReA85UMOMZYEYSDNlWpUqUcc27cyUEfNPyq6XGIMTF6eZCcEpL3FLwU8VZU4YWlbCoQEqZLJUXy15WDZ8+eLSwhokLjgIlUhXPQjCBmBBKGdBHKAqkyVod2ysC3CtjVqFFD/7pvxg7ADnx47lQLy5HI/hgCHgQ6derkOpSeXTl+otVjJtfOVjQzICdjMjz99NNzvEsjR450ZkWsNeqMQadt6NChzryOOdIvkhKyAkB69Qx+w8yhetEKAGveML7gFXrmkydP9u7K8Rszig6Gc4BGCYC9Eww3bNgQ6AmzH0eCTN7QbDR6tRIU5i0GXsMJ4yWqGZGGuS30msCXhpeGFWE8hTEs5sRgRsOeTbBRTIMq9PJ42JHGjRs78xZjMqzGe8QRR7iXBsxpjCFJxotKlSoVMMGhmWBSRMNgmQjIIlhwRmAZCTRA0qCxMP6F+Y3yBQvXoLzkhfYEGXsHjCFJysbYEsfQlLD3Izxz3bt3D2QJtm+++aYzV2K2XLlypetpgrGSMORGOQjjpHZ9ykoZ2M8zjymGQXAiN9Bj5X4hqv79+zvSZByiV69eDl/G+xgLMzEEghHARHz44YfnMPcz3xHrAWZjOkQ801gEkGhkRdtHh5EOWe/evQOXYxycjhfPtmr/vNf8p61g6MAvknSyokeKWQhTB40IPXDUT6/q6b15xiO8g3wcowccyV2SXrCX4GgkaCS9DRoNEd5Z2SA0upiN0KCiEZT3fnko1czHfurm6aefltatW7tGXb3ieDEwF0AoNNII5i+vV5C3YYUgcUgAYx52yA7Bqw4yoIxcwxu9gHJgfqVeOU/H0dyJng+eGciOssyaNcutJAspqbehJ6nT+nr06OE0G/LnWVuzZo03iXuJKQtjU2ifmDsR7g37PAIudIAIuMr90Kul80OvkmOQMM8o427kRVm0R8txSIn9jCNgQkRoHNDM2I85Re3+dDrQxNBwGevTgXJ3kn0YAh4EeE4YD+XdxDEJczIdITo/PJO0C0zbYBw5GllhIeD5Z2wKp6RPP/00cCWsDUcddVTgmYYUsZaow1EgYR7/SDpZ0QAytoFrswovNC8r3l/6kuOyi0t1NLKi96AmIPKmgaERKVu2rGbvGkgGzr3khFaBppANgjktkgbll3vkpVLi8kuZklEOYtqhTZoYAulGAFKio4VTE6TEOKx3TBjNnA4Snn7B7R2OTHQ6aXu9HXn2e516MKdDdl7BMsC1/SRJJytsqeHGRejpMzDPAD7u0wAPWeE4gP1fNwYIVbNCzX3ooYcc+TFuAHGhmsL833//vev5YnoBXJ08Ss+AngI9D5P0IUDvDxNitgnPoHe+WLbdn92PIZAJCCSdrOiBescCvCAwWM84BqYi7QVAVgzKMzCuG+qukhWaGGor/72TUlFRMROhnXEc9ZY5PZhf2M9aRiaGgCFgCBgC2YFA0skKU5C6AIeCCO2KAWlMg0g0MyBp6Nnilumd98L4B/MQRo8e7cYGSKcu1HfeeWfUeHLu4vZhCBgChoAhkBEIJJ2scHHG3dg7sI/NFM0Hl12NfKAhfaKRFdoY5zDojSOFCuYmPKuYL6SOAkwyZRImg+HekDd6jn0bAoaAIWAIZCYCSScrzHbM1cEBAg8yPKUIRYNbMN4teIjhfokXC+NP0cgKTYwBbtzPiVagy1VAgEywZGKnEiMeLrgq69hVZlaJldoQMAQMAUMgGIGkkxUXQBtibgtzUZj3grswmpXONSEN3oDM3odgvJEBOMbcIAKZYirEg1DNf2hQ6lpNOoiQiaNeIeiid2zLe8x+GwKGgCFgCGQmAikhq8yEwkptCBgChoAh4FcEjKz8WjNWLkPAEDAEDIEAAkZWASjshyFgCBgChoBfETCy8mvNWLkMAUPAEDAEAggYWQWgsB+GgCFgCBgCfkXAyMqvNWPlMgQMAUPAEAggYGQVgMJ+GAKGgCFgCPgVASMrv9aMlcsQMAQMAUMggICRVQAK+2EIGAKGgCHgVwSMrPxaM1YuQ8AQMAQMgQACRlYBKOyHIWAIGAKGgF8RMLLya81YuQwBQ8AQMAQCCBhZBaCwH4aAIWAIGAJ+RcDIyq81k0Xl+v7774UlXdItLFejy8ek+9qZcD2W6IlWL+AHjiaGQF4jYGSV1zXg4+sPHTpU7rvvPmHZlXnz5kUtKQ0f65WxgnO3bt1k8+bN7pxSpUrJ1v9v70xDdGrDOP5BjZokGcKQfUmMmgmZsW+NNUtIo5G1RM3YQ5Qtywf7VkooKR8UWcoS2ZeyhRiU7GsTUsiH6+131XU6xhmjeTyHp/e66nnmLPf6e+r+n/99n+m+f7/C/H86AW0ZO3bsny62UuWx5c22bdsqlTdZmXr06CGXLl36ZfHjxo0TNlT1cAJ/m4CL1d/+Bf7h+mvWrCl79+7VvcVatmxZ4aCFSHXv3l0OHDigG2/27t1be5cKYoUo79y5M/g1lixZIuw8Xdm4cuWKDBs2LMjOztZnz54Nzv+FAxerf+FX8Db8LgEXq98l9T9Mh1gxhUfgrubOnVsuhbt370pGRoZ8+vTppzSI1aFDh2TatGmycOFC3fWZRM+ePdNyeXrftGlTMCW1fft2uXHjhhQXF6tDszbgAk6cOKEbbk6ePFmuXbsW1FVSUqLpp0yZIggFEeWsHj9+rG2gTsSIDT4RkQ4dOki/fv10g9ALFy5Ip06dpG/fvoJoEWwoykafls+mzzZs2CC3bt36oW/shF1YWCiNGzeWBQsWCHVSprnTL1++yNq1a7WsZcuWBYwvXrwoJ0+elNWrV0vZ/tGGN2/eyK5du/QBYuLEiXL8+HF59OiR1r106VL59u2btpW2Ibzjx49Xfk+fPtXrfB0+fFgmTJigLo8HC3NWixYtCtLQjqNHj+p52Fm9fv1a+0PdlOPhBOIk4GIVJ+0UqwuxYkdnPu3bt9edncvrAmIzYsSIyNuIFQMjO0DjNnAxxJ49e+TgwYM62Ofm5qq4cB1HlpeXpwM3u03j2IgtW7ZInTp1dCBm0K5bt64K3Pv376VFixZy6tQpuXz5sjRp0kSFMEqs2F36yJEjKobZ2dnC7tPsVk272NX69OnT8uTJExk5cqQgfOxyTSA+CPaDBw/03saNG/U6ZfTp00fzDR8+XAdzxGjNmjXCPQQKsV2/fr3MmzdP84wZM0YF5vr16zJz5kwVRW7A0PqH2GRmZgYCzv3bt29LtWrVVGzhVqNGDRVY2tyrVy/ZvHmzlo8ADh48WHBztLNZs2a67gSbRo0aaZ9IU6VKlUCsqlatqnn5Is+cOXP03MSK3br5HZnOvHPnjvbt3LlzQR4/cALJJuBilWzCKVw+YoW7YUDNysqSVatWldubFStW6BN7VAIGOQZagif2IUOGBMlKS0t1UOVpHedCIFZnzpzRYwbYLl266DFiVVRUpMd81a9fX96+fatTjrggXBef/Px8dR9RYkU+xI2BvKCgQLZu3arlzZgx44c1JdbccE0E4pOenq7CY85uwIABeg9BsrU5hA+RIM6fPx+IEOcmVp8/f1bBMRf0/ft3LRs3hlhNnz5d8/NVr149effuXXAOQ1ha4AbNReJGTdRxdIiqRbt27QS3hFguX77cLitXc1YViRW8mAo2xjg/XLKHE4iLgItVXKRTsJ7wNOCLFy8kLS1NGFyjYvfu3dK1a9eoWzrA2gsWTHPZgM7g3LlzZ1m8eLH07NnzB7FicCVwH7gsArGaNWuWHvOFg2JqClGhnHXr1gUfpseixIopNlwe03vk+R2xQkgYzMPl2zQYYnXv3j1tEy5s4MCBelyeWL18+VJq1aoV9IED3NTz589VrMzRcB0XxNSfBWKFQFnABT4ETgwnSFSvXl0FWU9EtL9wR8zMfXEvvGbFb2sR5awQKRxamMHVq1cti/91Akkn4GKVdMSpW0FYrBiYGGRZD2GtiTWqcOBWGCRxFwRrQaxTEbiBKLFq27at3Lx5U9NMnTq10mLFQNyxY8dgyow28okSKwTu4cOHWidvCppYzZ49W9eR9IaITueZk6QvuBzrA2mYFiPKEyvE1hwh6cxZkY+1PeOHADVo0EB5Id5/QqyYUt2/f7+2j9+ldu3a6tBYJ2M6k3j16pVOM5qzIg3Tn3AbPXp00A6bBkRMmXa1fwWAiTHQAv3LCSSZgItVkgGncvEMTm3atBFEhY+9IMDaTfhNN+vjsWPH9KUC0rKGxEI+gVjxAgQRdlZMHTJFhdPClYWnAc1Z8aJF2FkhKhZNmzZVZ8UAO2nSJBWOoUOHqvvAwUSJFVNXOTk56oDCzgqRRZDMGeGS6D9TigRvODZv3lz7TVt37Nih18uK1aBBg/T6x48fpWHDhtKtWzd9EQSxmj9/vt7bt2+fcurfv7+0atVKp9a4UVasmM6ryFnBh2ANz5wVAoQo03bKt7Yy5cp0Lm3ig5iaWDE9iJND6EaNGvWTWFHHypUrpXXr1sLaHA8Hllcb4F9OIMkEXKySDDiVizeHwt9w8ERtay7h6xyTlgGWt+csvn79qs6Bc57Iw3mZYmNgp0ybYuQ+6cqmD6fhHuWG48OHD4JIWXv5G/UPrbgN3lqkPD4WtMOcA9c4D7/dSLtwlaxhWfyqb6S3NaeotuNWwu2LSmP18Bcm4T6HOZXtKywpP9xWyqAOpnT5S93GmXtwYU2Nsuy3II3xJA33Kdfuc83DCcRBwMUqDspehxNwAk7ACSREwMUqIXye2Qk4ASfgBOIg4GIVB2Wvwwk4ASfgBBIi4GKVED7P7AScgBNwAnEQcLGKg7LX4QScgBNwAgkRcLFKCJ9ndgJOwAk4gTgIuFjFQdnrcAJOwAk4gYQIuFglhM8zOwEn4AScQBwEXKzioOx1OAEn4AScQEIEXKwSwueZnYATcAJOIA4CLlZxUPY6nIATcAJOICECLlYJ4fPMTsAJOAEnEAeB/wD/gAMqsPSbsQAAAABJRU5ErkJggg==;" vertex="1" parent="1">
          <mxGeometry x="190" y="310" width="427" height="320" as="geometry" />
        </mxCell>
      </root>
    </mxGraphModel>
  </diagram>
</mxfile>
